<mxfile host="app.diagrams.net" modified="2024-03-21T04:31:22.147Z" agent="Mozilla/5.0 (Windows NT 10.0; Win64; x64) AppleWebKit/537.36 (KHTML, like Gecko) Chrome/123.0.0.0 Safari/537.36" version="24.0.7" etag="90hmveVdkXXRkf6_AJxm" type="github">
  <diagram name="페이지-1" id="u1tvT-KEGcJw5XhQ8Jeg">
    <mxGraphModel>
      <root>
        <mxCell id="0" />
        <mxCell id="1" parent="0" />
      </root>
    </mxGraphModel>
  </diagram>
</mxfile>
